<?xml version="1.0" encoding="UTF-8"?>
<!DOCTYPE svg PUBLIC "-//W3C//DTD SVG 1.1//EN" "http://www.w3.org/Graphics/SVG/1.1/DTD/svg11.dtd">
<svg xmlns="http://www.w3.org/2000/svg" version="1.1" width="673px" height="673px" style="shape-rendering:geometricPrecision; text-rendering:geometricPrecision; image-rendering:optimizeQuality; fill-rule:evenodd; clip-rule:evenodd" xmlns:xlink="http://www.w3.org/1999/xlink">
<g><path style="opacity:0.995" fill="#323848" d="M 310.5,-0.5 C 327.5,-0.5 344.5,-0.5 361.5,-0.5C 477.252,11.8414 565.752,67.1747 627,165.5C 652.759,210.606 667.926,258.939 672.5,310.5C 672.5,327.5 672.5,344.5 672.5,361.5C 660.159,477.252 604.825,565.752 506.5,627C 461.394,652.759 413.061,667.926 361.5,672.5C 344.5,672.5 327.5,672.5 310.5,672.5C 194.748,660.159 106.248,604.825 45,506.5C 19.2409,461.394 4.07423,413.061 -0.5,361.5C -0.5,344.5 -0.5,327.5 -0.5,310.5C 11.8414,194.748 67.1747,106.248 165.5,45C 210.606,19.2409 258.939,4.07423 310.5,-0.5 Z"/></g>
<g><path style="opacity:1" fill="#faf9ed" d="M 312.5,25.5 C 422.079,20.8247 511.579,60.4914 581,144.5C 644.329,229.728 661.662,323.728 633,426.5C 597.919,530.581 528.085,599.415 423.5,633C 327.951,659.186 239.284,644.52 157.5,589C 79.0735,530.679 35.5735,452.513 27,354.5C 23.2434,246.872 62.7434,159.038 145.5,91C 194.917,53.3586 250.583,31.5253 312.5,25.5 Z"/></g>
<g><path style="opacity:1" fill="#323848" d="M 341.5,46.5 C 319.595,63.0134 315.429,83.3467 329,107.5C 346.417,126.886 366.25,129.72 388.5,116C 405.725,100.505 409.225,82.3379 399,61.5C 396.955,58.5767 394.788,55.7433 392.5,53C 392.728,52.6012 393.062,52.4346 393.5,52.5C 483.316,72.4741 550.15,122.807 594,203.5C 631.577,280.761 635.577,359.761 606,440.5C 597.373,462.437 586.206,482.77 572.5,501.5C 503.499,501.333 434.499,501.5 365.5,502C 363.181,503.147 361.848,504.981 361.5,507.5C 360.507,516.318 360.173,525.318 360.5,534.5C 422.002,534.168 483.336,534.501 544.5,535.5C 543.5,537.167 542.167,538.5 540.5,539.5C 476.167,539.5 411.833,539.5 347.5,539.5C 347.5,547.833 347.5,556.167 347.5,564.5C 401.5,565.167 455.5,565.833 509.5,566.5C 449.021,611.383 381.021,630.216 305.5,623C 207.856,609.612 134.023,560.779 84,476.5C 40.0365,392.348 36.0365,306.348 72,218.5C 112.43,133.197 178.264,78.3638 269.5,54C 293.199,48.6634 317.199,46.1634 341.5,46.5 Z"/></g>
<g><path style="opacity:1" fill="#aeb2a4" d="M 341.5,46.5 C 359.151,46.9791 376.485,48.9791 393.5,52.5C 393.062,52.4346 392.728,52.6012 392.5,53C 394.788,55.7433 396.955,58.5767 399,61.5C 409.225,82.3379 405.725,100.505 388.5,116C 366.25,129.72 346.417,126.886 329,107.5C 315.429,83.3467 319.595,63.0134 341.5,46.5 Z"/></g>
<g><path style="opacity:1" fill="#d7d8d7" d="M 354.5,53.5 C 380.693,51.5297 393.193,63.5297 392,89.5C 389.071,101.552 381.571,109.052 369.5,112C 343.843,113.343 332.01,101.176 334,75.5C 337.285,64.7191 344.119,57.3858 354.5,53.5 Z"/></g>
<g><path style="opacity:1" fill="#83cea9" d="M 356.5,65.5 C 373.842,63.6766 381.676,71.3433 380,88.5C 373.458,100.789 363.958,103.622 351.5,97C 345.417,90.482 343.917,82.982 347,74.5C 349.406,70.5915 352.572,67.5915 356.5,65.5 Z"/></g>
<g><path style="opacity:1" fill="#adb2a4" d="M 308.5,93.5 C 309.497,93.4701 310.164,93.9701 310.5,95C 316.522,115.689 329.855,129.022 350.5,135C 330.501,155.833 310.167,176.333 289.5,196.5C 275.5,183.167 261.833,169.5 248.5,155.5C 268.885,135.117 288.885,114.45 308.5,93.5 Z"/></g>
<g><path style="opacity:1" fill="#aeb3a4" d="M 414.5,97.5 C 434.299,116.798 453.965,136.298 473.5,156C 456.605,163.228 444.772,175.395 438,192.5C 418.5,173 399,153.5 379.5,134C 397.149,127.518 408.816,115.352 414.5,97.5 Z"/></g>
<g><path style="opacity:1" fill="#adb2a3" d="M 237.5,165.5 C 238.552,165.351 239.552,165.517 240.5,166C 253.833,179.333 267.167,192.667 280.5,206C 271.5,215 262.5,224 253.5,233C 251.833,233.667 250.167,233.667 248.5,233C 235.591,220.594 223.258,207.76 211.5,194.5C 211.719,193.062 212.219,191.729 213,190.5C 221.369,182.298 229.536,173.965 237.5,165.5 Z"/></g>
<g><path style="opacity:1" fill="#adb2a3" d="M 480.5,166.5 C 512.905,165.081 529.738,180.414 531,212.5C 528.455,230.379 518.622,242.212 501.5,248C 473.828,253.324 455.995,242.49 448,215.5C 446.272,190.744 457.105,174.411 480.5,166.5 Z"/></g>
<g><path style="opacity:1" fill="#d7d8d7" d="M 483.5,178.5 C 509.763,178.59 521.263,191.59 518,217.5C 511.29,233.272 499.457,239.772 482.5,237C 465.549,231.284 458.049,219.451 460,201.5C 463.813,189.518 471.647,181.851 483.5,178.5 Z"/></g>
<g><path style="opacity:1" fill="#83cea9" d="M 483.5,190.5 C 494.948,188.471 502.782,192.804 507,203.5C 507.468,219.697 499.635,226.864 483.5,225C 472.832,220.014 469.332,211.847 473,200.5C 475.738,196.26 479.238,192.926 483.5,190.5 Z"/></g>
<g><path style="opacity:1" fill="#aaafa1" d="M 217.5,215.5 C 221.235,217.725 224.568,220.558 227.5,224C 219.5,232 211.5,240 203.5,248C 199.835,248.387 197.002,246.887 195,243.5C 194.333,241.833 194.333,240.167 195,238.5C 202.702,230.965 210.202,223.298 217.5,215.5 Z"/></g>
<g><path style="opacity:1" fill="#7e8481" d="M 515.5,255.5 C 515.56,254.957 515.893,254.624 516.5,254.5C 517.833,277.5 517.833,300.5 516.5,323.5C 515.893,323.376 515.56,323.043 515.5,322.5C 516.833,300.167 516.833,277.833 515.5,255.5 Z"/></g>
<g><path style="opacity:1" fill="#aeb3a4" d="M 515.5,255.5 C 516.833,277.833 516.833,300.167 515.5,322.5C 497.826,315.834 480.159,315.834 462.5,322.5C 462.333,299.831 462.5,277.164 463,254.5C 480.294,263.495 497.794,263.829 515.5,255.5 Z"/></g>
<g><path style="opacity:1" fill="#7fcaa6" d="M 173.5,256.5 C 187.766,256.057 193.266,262.724 190,276.5C 184.001,284.355 176.834,285.521 168.5,280C 161.958,270.326 163.624,262.493 173.5,256.5 Z"/></g>
<g><path style="opacity:1" fill="#adb2a4" d="M 481.5,333.5 C 513.563,332.418 534.397,347.085 544,377.5C 547.929,405.809 537.429,426.643 512.5,440C 484.398,450.685 461.232,444.185 443,420.5C 426.262,389.517 431.762,363.35 459.5,342C 466.618,338.245 473.951,335.412 481.5,333.5 Z"/></g>
<g><path style="opacity:1" fill="#c0bdb1" d="M 178.5,338.5 C 188.5,338.5 198.5,338.5 208.5,338.5C 208.5,356.167 208.5,373.833 208.5,391.5C 198.494,391.666 188.494,391.5 178.5,391C 161.731,380.962 157.564,367.129 166,349.5C 169.742,345.253 173.908,341.586 178.5,338.5 Z"/></g>
<g><path style="opacity:1" fill="#3b8a88" d="M 212.5,338.5 C 223.27,338.047 233.937,338.547 244.5,340C 260.048,350.318 263.548,363.818 255,380.5C 252.014,384.242 248.514,387.408 244.5,390C 233.937,391.453 223.27,391.953 212.5,391.5C 212.5,373.833 212.5,356.167 212.5,338.5 Z"/></g>
<g><path style="opacity:1" fill="#d8d8d8" d="M 481.5,349.5 C 514.696,349.193 530.196,365.526 528,398.5C 520.351,421.412 504.518,431.245 480.5,428C 457.728,420.992 447.561,405.492 450,381.5C 454.709,364.959 465.209,354.292 481.5,349.5 Z"/></g>
<g><path style="opacity:1" fill="#83cea9" d="M 483.5,365.5 C 498.316,364.155 508.149,370.488 513,384.5C 513.529,403.971 504.029,413.471 484.5,413C 470.339,408.178 464.172,398.345 466,383.5C 468.683,374.318 474.517,368.318 483.5,365.5 Z"/></g>
<g><path style="opacity:1" fill="#b6a07b" d="M 178.5,397.5 C 188.5,397.5 198.5,397.5 208.5,397.5C 208.5,415.167 208.5,432.833 208.5,450.5C 198.494,450.666 188.494,450.5 178.5,450C 161.731,439.962 157.564,426.129 166,408.5C 169.742,404.253 173.908,400.586 178.5,397.5 Z"/></g>
<g><path style="opacity:1" fill="#cabb9b" d="M 212.5,397.5 C 223.27,397.047 233.937,397.547 244.5,399C 260.048,409.318 263.548,422.818 255,439.5C 252.014,443.242 248.514,446.408 244.5,449C 233.937,450.453 223.27,450.953 212.5,450.5C 212.5,432.833 212.5,415.167 212.5,397.5 Z"/></g>
<g><path style="opacity:1" fill="#50565e" d="M 544.5,434.5 C 544.56,433.957 544.893,433.624 545.5,433.5C 546.826,448.661 546.826,463.661 545.5,478.5C 545.829,463.657 545.496,448.99 544.5,434.5 Z"/></g>
<g><path style="opacity:1" fill="#adb2a4" d="M 544.5,434.5 C 545.496,448.99 545.829,463.657 545.5,478.5C 508.167,478.5 470.833,478.5 433.5,478.5C 433.333,463.83 433.5,449.163 434,434.5C 459.026,461.796 488.526,467.963 522.5,453C 531.246,448.413 538.579,442.246 544.5,434.5 Z"/></g>
<g><path style="opacity:1" fill="#c0bdb1" d="M 174.5,461.5 C 189.225,459.944 200.058,465.611 207,478.5C 207.5,488.494 207.666,498.494 207.5,508.5C 189.833,508.5 172.167,508.5 154.5,508.5C 154.334,498.494 154.5,488.494 155,478.5C 159.52,470.475 166.02,464.809 174.5,461.5 Z"/></g>
<g><path style="opacity:1" fill="#c0bdb1" d="M 233.5,461.5 C 248.225,459.944 259.058,465.611 266,478.5C 266.5,488.494 266.666,498.494 266.5,508.5C 248.833,508.5 231.167,508.5 213.5,508.5C 213.334,498.494 213.5,488.494 214,478.5C 218.52,470.475 225.02,464.809 233.5,461.5 Z"/></g>
<g><path style="opacity:1" fill="#aaac9e" d="M 572.5,501.5 C 564.939,513.061 556.273,523.728 546.5,533.5C 484.833,533.5 423.167,533.5 361.5,533.5C 361.5,524.833 361.5,516.167 361.5,507.5C 361.848,504.981 363.181,503.147 365.5,502C 434.499,501.5 503.499,501.333 572.5,501.5 Z"/></g>
<g><path style="opacity:1" fill="#3b8a88" d="M 154.5,512.5 C 172.167,512.5 189.833,512.5 207.5,512.5C 207.953,523.27 207.453,533.937 206,544.5C 195.656,560.058 182.156,563.558 165.5,555C 161.758,552.014 158.592,548.514 156,544.5C 154.547,533.937 154.047,523.27 154.5,512.5 Z"/></g>
<g><path style="opacity:1" fill="#3b8a88" d="M 213.5,512.5 C 231.167,512.5 248.833,512.5 266.5,512.5C 266.953,523.27 266.453,533.937 265,544.5C 254.656,560.058 241.156,563.558 224.5,555C 220.758,552.014 217.592,548.514 215,544.5C 213.547,533.937 213.047,523.27 213.5,512.5 Z"/></g>
<g><path style="opacity:1" fill="#454a56" d="M 361.5,507.5 C 361.5,516.167 361.5,524.833 361.5,533.5C 423.167,533.5 484.833,533.5 546.5,533.5C 546.167,534.5 545.5,535.167 544.5,535.5C 483.336,534.501 422.002,534.168 360.5,534.5C 360.173,525.318 360.507,516.318 361.5,507.5 Z"/></g>
<g><path style="opacity:1" fill="#a9ab9d" d="M 540.5,539.5 C 531.455,548.879 521.789,557.546 511.5,565.5C 457.003,564.501 402.336,564.168 347.5,564.5C 347.5,556.167 347.5,547.833 347.5,539.5C 411.833,539.5 476.167,539.5 540.5,539.5 Z"/></g>
<g><path style="opacity:1" fill="#404552" d="M 347.5,564.5 C 402.336,564.168 457.003,564.501 511.5,565.5C 510.833,565.833 510.167,566.167 509.5,566.5C 455.5,565.833 401.5,565.167 347.5,564.5 Z"/></g>
</svg>
